<?xml version="1.0" encoding="UTF-8"?>
<svg width="1200pt" height="1200pt" version="1.1" viewBox="0 0 1200 1200" xmlns="http://www.w3.org/2000/svg">
 <path d="m1127.1 831.68c0.13281-1.0195 0.86328-1.918 0.86328-2.9766v-671.68c0-2.3164-0.91016-4.4648-1.5703-6.6016-0.14453-0.49219-0.097657-0.98438-0.26563-1.4766-0.046874-0.13281-0.26562-0.17969-0.3125-0.3125-1.332-3.3828-3.5391-6.1914-6.2148-8.5547-0.71875-0.67188-1.4883-1.0195-2.293-1.5586-2.2305-1.5117-4.6797-2.5781-7.3672-3.2539-0.64844-0.17969-1.1406-0.71875-1.8008-0.80469l-727.62-111.97c-7.9336-1.2969-15.875 1.8242-21.023 7.9336 0 0-283.39 342.25-284.09 344.98-0.28516 1.1133-3.9219 668.77-3.9219 668.77 0 11.281 2.7227 20.855 13.836 22.559 0 0 756.68 111.39 757.03 110.95l279.83-335.09c0.70703-0.83984 0.94922-1.5117 1.5117-2.4492 0.81641-1.332 1.8125-2.4258 2.3516-3.9375 0.58984-1.5195 0.81641-2.9336 1.0586-4.5312zm-740.8-762.12 674.95 103.86-245.74 294.93-674.99-103.81zm-266.34 337.98 684 104.89v625.5l-684-104.89zm732 93.613 228-281.05v600.3l-228 281.1z"/>
</svg>
